# xmcd
#
# Track frame offsets: 
#        150
#        15927
#        29447
#        45977
#        65182
#        76985
#        90722
#        107567
#        120655
#        133750
#        144735
#        157632
#        174487
#        187430
#        199885
#        215045
#        228142
#        245082
#        259270
#        270285
#        288465
#        306460
#        320792
#
# Disc length: 4441 seconds
#
# Revision: 6
# Processed by: cddbd v1.5.2PL0 Copyright (c) Steve Scherf et al.
# Submitted via: ExactAudioCopyFreeDBPlugin 1.0
#
DISCID=55115717
DTITLE=Django Reinhardt - Djangology
DYEAR=2002
DGENRE=Jazz
TTITLE0=I Saw Stars
TTITLE1=After You've Gone
TTITLE2=Heavy Artillery
TTITLE3=Beyond The Sea
TTITLE4=Minor Swing
TTITLE5=Menilmontant
TTITLE6=Brick Top
TTITLE7=Swing Guitars
TTITLE8=All The Things You Are
TTITLE9=Daphne
TTITLE10=(It's Only A) Paper Moon
TTITLE11=Improvisation On Tchaikovsky's Pathétique
TTITLE12=The World Is Waiting For The Sunrise
TTITLE13=Djangology
TTITLE14=Où Es-Tu, Mon Amour? (Where Are You, My Love?)
TTITLE15=Marie
TTITLE16=I Surrender, Dear
TTITLE17=Hallelujah
TTITLE18=Swing 42
TTITLE19=I'll Never Be The Same
TTITLE20=Honeysuckle Rose
TTITLE21=Lover Man (Oh, Where Can You Be?)
TTITLE22=I Got Rhythm
EXTD=YEAR: 2002
EXTT0=
EXTT1=
EXTT2=
EXTT3=
EXTT4=
EXTT5=
EXTT6=
EXTT7=
EXTT8=
EXTT9=
EXTT10=
EXTT11=
EXTT12=
EXTT13=
EXTT14=
EXTT15=
EXTT16=
EXTT17=
EXTT18=
EXTT19=
EXTT20=
EXTT21=
EXTT22=
PLAYORDER=
